<svg xmlns="http://www.w3.org/2000/svg" width="1024" height="1024" viewBox="0 0 1024 1024">
<defs><radialGradient id="sc" cx="50%" cy="30%" r="70%"><stop offset="0" stop-color="#b8342c"/><stop offset="1" stop-color="#4a0e0c"/></radialGradient></defs>
<g fill="url(#sc)" stroke="#2a0605" stroke-width="2"><path transform="translate(0 0) rotate(0)" d="M-22 0 A22 22 0 0 0 22 0 L22 -30 L-22 -30 Z"/><path transform="translate(20 32) rotate(0)" d="M-22 0 A22 22 0 0 0 22 0 L22 -30 L-22 -30 Z"/><path transform="translate(0 1024) rotate(180)" d="M-22 0 A22 22 0 0 0 22 0 L22 -30 L-22 -30 Z"/><path transform="translate(20 992) rotate(180)" d="M-22 0 A22 22 0 0 0 22 0 L22 -30 L-22 -30 Z"/><path transform="translate(0 0) rotate(-90)" d="M-22 0 A22 22 0 0 0 22 0 L22 -30 L-22 -30 Z"/><path transform="translate(32 20) rotate(-90)" d="M-22 0 A22 22 0 0 0 22 0 L22 -30 L-22 -30 Z"/><path transform="translate(1024 0) rotate(90)" d="M-22 0 A22 22 0 0 0 22 0 L22 -30 L-22 -30 Z"/><path transform="translate(992 20) rotate(90)" d="M-22 0 A22 22 0 0 0 22 0 L22 -30 L-22 -30 Z"/><path transform="translate(40 0) rotate(0)" d="M-22 0 A22 22 0 0 0 22 0 L22 -30 L-22 -30 Z"/><path transform="translate(60 32) rotate(0)" d="M-22 0 A22 22 0 0 0 22 0 L22 -30 L-22 -30 Z"/><path transform="translate(40 1024) rotate(180)" d="M-22 0 A22 22 0 0 0 22 0 L22 -30 L-22 -30 Z"/><path transform="translate(60 992) rotate(180)" d="M-22 0 A22 22 0 0 0 22 0 L22 -30 L-22 -30 Z"/><path transform="translate(0 40) rotate(-90)" d="M-22 0 A22 22 0 0 0 22 0 L22 -30 L-22 -30 Z"/><path transform="translate(32 60) rotate(-90)" d="M-22 0 A22 22 0 0 0 22 0 L22 -30 L-22 -30 Z"/><path transform="translate(1024 40) rotate(90)" d="M-22 0 A22 22 0 0 0 22 0 L22 -30 L-22 -30 Z"/><path transform="translate(992 60) rotate(90)" d="M-22 0 A22 22 0 0 0 22 0 L22 -30 L-22 -30 Z"/><path transform="translate(80 0) rotate(0)" d="M-22 0 A22 22 0 0 0 22 0 L22 -30 L-22 -30 Z"/><path transform="translate(100 32) rotate(0)" d="M-22 0 A22 22 0 0 0 22 0 L22 -30 L-22 -30 Z"/><path transform="translate(80 1024) rotate(180)" d="M-22 0 A22 22 0 0 0 22 0 L22 -30 L-22 -30 Z"/><path transform="translate(100 992) rotate(180)" d="M-22 0 A22 22 0 0 0 22 0 L22 -30 L-22 -30 Z"/><path transform="translate(0 80) rotate(-90)" d="M-22 0 A22 22 0 0 0 22 0 L22 -30 L-22 -30 Z"/><path transform="translate(32 100) rotate(-90)" d="M-22 0 A22 22 0 0 0 22 0 L22 -30 L-22 -30 Z"/><path transform="translate(1024 80) rotate(90)" d="M-22 0 A22 22 0 0 0 22 0 L22 -30 L-22 -30 Z"/><path transform="translate(992 100) rotate(90)" d="M-22 0 A22 22 0 0 0 22 0 L22 -30 L-22 -30 Z"/><path transform="translate(120 0) rotate(0)" d="M-22 0 A22 22 0 0 0 22 0 L22 -30 L-22 -30 Z"/><path transform="translate(140 32) rotate(0)" d="M-22 0 A22 22 0 0 0 22 0 L22 -30 L-22 -30 Z"/><path transform="translate(120 1024) rotate(180)" d="M-22 0 A22 22 0 0 0 22 0 L22 -30 L-22 -30 Z"/><path transform="translate(140 992) rotate(180)" d="M-22 0 A22 22 0 0 0 22 0 L22 -30 L-22 -30 Z"/><path transform="translate(0 120) rotate(-90)" d="M-22 0 A22 22 0 0 0 22 0 L22 -30 L-22 -30 Z"/><path transform="translate(32 140) rotate(-90)" d="M-22 0 A22 22 0 0 0 22 0 L22 -30 L-22 -30 Z"/><path transform="translate(1024 120) rotate(90)" d="M-22 0 A22 22 0 0 0 22 0 L22 -30 L-22 -30 Z"/><path transform="translate(992 140) rotate(90)" d="M-22 0 A22 22 0 0 0 22 0 L22 -30 L-22 -30 Z"/><path transform="translate(160 0) rotate(0)" d="M-22 0 A22 22 0 0 0 22 0 L22 -30 L-22 -30 Z"/><path transform="translate(180 32) rotate(0)" d="M-22 0 A22 22 0 0 0 22 0 L22 -30 L-22 -30 Z"/><path transform="translate(160 1024) rotate(180)" d="M-22 0 A22 22 0 0 0 22 0 L22 -30 L-22 -30 Z"/><path transform="translate(180 992) rotate(180)" d="M-22 0 A22 22 0 0 0 22 0 L22 -30 L-22 -30 Z"/><path transform="translate(0 160) rotate(-90)" d="M-22 0 A22 22 0 0 0 22 0 L22 -30 L-22 -30 Z"/><path transform="translate(32 180) rotate(-90)" d="M-22 0 A22 22 0 0 0 22 0 L22 -30 L-22 -30 Z"/><path transform="translate(1024 160) rotate(90)" d="M-22 0 A22 22 0 0 0 22 0 L22 -30 L-22 -30 Z"/><path transform="translate(992 180) rotate(90)" d="M-22 0 A22 22 0 0 0 22 0 L22 -30 L-22 -30 Z"/><path transform="translate(200 0) rotate(0)" d="M-22 0 A22 22 0 0 0 22 0 L22 -30 L-22 -30 Z"/><path transform="translate(220 32) rotate(0)" d="M-22 0 A22 22 0 0 0 22 0 L22 -30 L-22 -30 Z"/><path transform="translate(200 1024) rotate(180)" d="M-22 0 A22 22 0 0 0 22 0 L22 -30 L-22 -30 Z"/><path transform="translate(220 992) rotate(180)" d="M-22 0 A22 22 0 0 0 22 0 L22 -30 L-22 -30 Z"/><path transform="translate(0 200) rotate(-90)" d="M-22 0 A22 22 0 0 0 22 0 L22 -30 L-22 -30 Z"/><path transform="translate(32 220) rotate(-90)" d="M-22 0 A22 22 0 0 0 22 0 L22 -30 L-22 -30 Z"/><path transform="translate(1024 200) rotate(90)" d="M-22 0 A22 22 0 0 0 22 0 L22 -30 L-22 -30 Z"/><path transform="translate(992 220) rotate(90)" d="M-22 0 A22 22 0 0 0 22 0 L22 -30 L-22 -30 Z"/><path transform="translate(240 0) rotate(0)" d="M-22 0 A22 22 0 0 0 22 0 L22 -30 L-22 -30 Z"/><path transform="translate(260 32) rotate(0)" d="M-22 0 A22 22 0 0 0 22 0 L22 -30 L-22 -30 Z"/><path transform="translate(240 1024) rotate(180)" d="M-22 0 A22 22 0 0 0 22 0 L22 -30 L-22 -30 Z"/><path transform="translate(260 992) rotate(180)" d="M-22 0 A22 22 0 0 0 22 0 L22 -30 L-22 -30 Z"/><path transform="translate(0 240) rotate(-90)" d="M-22 0 A22 22 0 0 0 22 0 L22 -30 L-22 -30 Z"/><path transform="translate(32 260) rotate(-90)" d="M-22 0 A22 22 0 0 0 22 0 L22 -30 L-22 -30 Z"/><path transform="translate(1024 240) rotate(90)" d="M-22 0 A22 22 0 0 0 22 0 L22 -30 L-22 -30 Z"/><path transform="translate(992 260) rotate(90)" d="M-22 0 A22 22 0 0 0 22 0 L22 -30 L-22 -30 Z"/><path transform="translate(280 0) rotate(0)" d="M-22 0 A22 22 0 0 0 22 0 L22 -30 L-22 -30 Z"/><path transform="translate(300 32) rotate(0)" d="M-22 0 A22 22 0 0 0 22 0 L22 -30 L-22 -30 Z"/><path transform="translate(280 1024) rotate(180)" d="M-22 0 A22 22 0 0 0 22 0 L22 -30 L-22 -30 Z"/><path transform="translate(300 992) rotate(180)" d="M-22 0 A22 22 0 0 0 22 0 L22 -30 L-22 -30 Z"/><path transform="translate(0 280) rotate(-90)" d="M-22 0 A22 22 0 0 0 22 0 L22 -30 L-22 -30 Z"/><path transform="translate(32 300) rotate(-90)" d="M-22 0 A22 22 0 0 0 22 0 L22 -30 L-22 -30 Z"/><path transform="translate(1024 280) rotate(90)" d="M-22 0 A22 22 0 0 0 22 0 L22 -30 L-22 -30 Z"/><path transform="translate(992 300) rotate(90)" d="M-22 0 A22 22 0 0 0 22 0 L22 -30 L-22 -30 Z"/><path transform="translate(320 0) rotate(0)" d="M-22 0 A22 22 0 0 0 22 0 L22 -30 L-22 -30 Z"/><path transform="translate(340 32) rotate(0)" d="M-22 0 A22 22 0 0 0 22 0 L22 -30 L-22 -30 Z"/><path transform="translate(320 1024) rotate(180)" d="M-22 0 A22 22 0 0 0 22 0 L22 -30 L-22 -30 Z"/><path transform="translate(340 992) rotate(180)" d="M-22 0 A22 22 0 0 0 22 0 L22 -30 L-22 -30 Z"/><path transform="translate(0 320) rotate(-90)" d="M-22 0 A22 22 0 0 0 22 0 L22 -30 L-22 -30 Z"/><path transform="translate(32 340) rotate(-90)" d="M-22 0 A22 22 0 0 0 22 0 L22 -30 L-22 -30 Z"/><path transform="translate(1024 320) rotate(90)" d="M-22 0 A22 22 0 0 0 22 0 L22 -30 L-22 -30 Z"/><path transform="translate(992 340) rotate(90)" d="M-22 0 A22 22 0 0 0 22 0 L22 -30 L-22 -30 Z"/><path transform="translate(360 0) rotate(0)" d="M-22 0 A22 22 0 0 0 22 0 L22 -30 L-22 -30 Z"/><path transform="translate(380 32) rotate(0)" d="M-22 0 A22 22 0 0 0 22 0 L22 -30 L-22 -30 Z"/><path transform="translate(360 1024) rotate(180)" d="M-22 0 A22 22 0 0 0 22 0 L22 -30 L-22 -30 Z"/><path transform="translate(380 992) rotate(180)" d="M-22 0 A22 22 0 0 0 22 0 L22 -30 L-22 -30 Z"/><path transform="translate(0 360) rotate(-90)" d="M-22 0 A22 22 0 0 0 22 0 L22 -30 L-22 -30 Z"/><path transform="translate(32 380) rotate(-90)" d="M-22 0 A22 22 0 0 0 22 0 L22 -30 L-22 -30 Z"/><path transform="translate(1024 360) rotate(90)" d="M-22 0 A22 22 0 0 0 22 0 L22 -30 L-22 -30 Z"/><path transform="translate(992 380) rotate(90)" d="M-22 0 A22 22 0 0 0 22 0 L22 -30 L-22 -30 Z"/><path transform="translate(400 0) rotate(0)" d="M-22 0 A22 22 0 0 0 22 0 L22 -30 L-22 -30 Z"/><path transform="translate(420 32) rotate(0)" d="M-22 0 A22 22 0 0 0 22 0 L22 -30 L-22 -30 Z"/><path transform="translate(400 1024) rotate(180)" d="M-22 0 A22 22 0 0 0 22 0 L22 -30 L-22 -30 Z"/><path transform="translate(420 992) rotate(180)" d="M-22 0 A22 22 0 0 0 22 0 L22 -30 L-22 -30 Z"/><path transform="translate(0 400) rotate(-90)" d="M-22 0 A22 22 0 0 0 22 0 L22 -30 L-22 -30 Z"/><path transform="translate(32 420) rotate(-90)" d="M-22 0 A22 22 0 0 0 22 0 L22 -30 L-22 -30 Z"/><path transform="translate(1024 400) rotate(90)" d="M-22 0 A22 22 0 0 0 22 0 L22 -30 L-22 -30 Z"/><path transform="translate(992 420) rotate(90)" d="M-22 0 A22 22 0 0 0 22 0 L22 -30 L-22 -30 Z"/><path transform="translate(440 0) rotate(0)" d="M-22 0 A22 22 0 0 0 22 0 L22 -30 L-22 -30 Z"/><path transform="translate(460 32) rotate(0)" d="M-22 0 A22 22 0 0 0 22 0 L22 -30 L-22 -30 Z"/><path transform="translate(440 1024) rotate(180)" d="M-22 0 A22 22 0 0 0 22 0 L22 -30 L-22 -30 Z"/><path transform="translate(460 992) rotate(180)" d="M-22 0 A22 22 0 0 0 22 0 L22 -30 L-22 -30 Z"/><path transform="translate(0 440) rotate(-90)" d="M-22 0 A22 22 0 0 0 22 0 L22 -30 L-22 -30 Z"/><path transform="translate(32 460) rotate(-90)" d="M-22 0 A22 22 0 0 0 22 0 L22 -30 L-22 -30 Z"/><path transform="translate(1024 440) rotate(90)" d="M-22 0 A22 22 0 0 0 22 0 L22 -30 L-22 -30 Z"/><path transform="translate(992 460) rotate(90)" d="M-22 0 A22 22 0 0 0 22 0 L22 -30 L-22 -30 Z"/><path transform="translate(480 0) rotate(0)" d="M-22 0 A22 22 0 0 0 22 0 L22 -30 L-22 -30 Z"/><path transform="translate(500 32) rotate(0)" d="M-22 0 A22 22 0 0 0 22 0 L22 -30 L-22 -30 Z"/><path transform="translate(480 1024) rotate(180)" d="M-22 0 A22 22 0 0 0 22 0 L22 -30 L-22 -30 Z"/><path transform="translate(500 992) rotate(180)" d="M-22 0 A22 22 0 0 0 22 0 L22 -30 L-22 -30 Z"/><path transform="translate(0 480) rotate(-90)" d="M-22 0 A22 22 0 0 0 22 0 L22 -30 L-22 -30 Z"/><path transform="translate(32 500) rotate(-90)" d="M-22 0 A22 22 0 0 0 22 0 L22 -30 L-22 -30 Z"/><path transform="translate(1024 480) rotate(90)" d="M-22 0 A22 22 0 0 0 22 0 L22 -30 L-22 -30 Z"/><path transform="translate(992 500) rotate(90)" d="M-22 0 A22 22 0 0 0 22 0 L22 -30 L-22 -30 Z"/><path transform="translate(520 0) rotate(0)" d="M-22 0 A22 22 0 0 0 22 0 L22 -30 L-22 -30 Z"/><path transform="translate(540 32) rotate(0)" d="M-22 0 A22 22 0 0 0 22 0 L22 -30 L-22 -30 Z"/><path transform="translate(520 1024) rotate(180)" d="M-22 0 A22 22 0 0 0 22 0 L22 -30 L-22 -30 Z"/><path transform="translate(540 992) rotate(180)" d="M-22 0 A22 22 0 0 0 22 0 L22 -30 L-22 -30 Z"/><path transform="translate(0 520) rotate(-90)" d="M-22 0 A22 22 0 0 0 22 0 L22 -30 L-22 -30 Z"/><path transform="translate(32 540) rotate(-90)" d="M-22 0 A22 22 0 0 0 22 0 L22 -30 L-22 -30 Z"/><path transform="translate(1024 520) rotate(90)" d="M-22 0 A22 22 0 0 0 22 0 L22 -30 L-22 -30 Z"/><path transform="translate(992 540) rotate(90)" d="M-22 0 A22 22 0 0 0 22 0 L22 -30 L-22 -30 Z"/><path transform="translate(560 0) rotate(0)" d="M-22 0 A22 22 0 0 0 22 0 L22 -30 L-22 -30 Z"/><path transform="translate(580 32) rotate(0)" d="M-22 0 A22 22 0 0 0 22 0 L22 -30 L-22 -30 Z"/><path transform="translate(560 1024) rotate(180)" d="M-22 0 A22 22 0 0 0 22 0 L22 -30 L-22 -30 Z"/><path transform="translate(580 992) rotate(180)" d="M-22 0 A22 22 0 0 0 22 0 L22 -30 L-22 -30 Z"/><path transform="translate(0 560) rotate(-90)" d="M-22 0 A22 22 0 0 0 22 0 L22 -30 L-22 -30 Z"/><path transform="translate(32 580) rotate(-90)" d="M-22 0 A22 22 0 0 0 22 0 L22 -30 L-22 -30 Z"/><path transform="translate(1024 560) rotate(90)" d="M-22 0 A22 22 0 0 0 22 0 L22 -30 L-22 -30 Z"/><path transform="translate(992 580) rotate(90)" d="M-22 0 A22 22 0 0 0 22 0 L22 -30 L-22 -30 Z"/><path transform="translate(600 0) rotate(0)" d="M-22 0 A22 22 0 0 0 22 0 L22 -30 L-22 -30 Z"/><path transform="translate(620 32) rotate(0)" d="M-22 0 A22 22 0 0 0 22 0 L22 -30 L-22 -30 Z"/><path transform="translate(600 1024) rotate(180)" d="M-22 0 A22 22 0 0 0 22 0 L22 -30 L-22 -30 Z"/><path transform="translate(620 992) rotate(180)" d="M-22 0 A22 22 0 0 0 22 0 L22 -30 L-22 -30 Z"/><path transform="translate(0 600) rotate(-90)" d="M-22 0 A22 22 0 0 0 22 0 L22 -30 L-22 -30 Z"/><path transform="translate(32 620) rotate(-90)" d="M-22 0 A22 22 0 0 0 22 0 L22 -30 L-22 -30 Z"/><path transform="translate(1024 600) rotate(90)" d="M-22 0 A22 22 0 0 0 22 0 L22 -30 L-22 -30 Z"/><path transform="translate(992 620) rotate(90)" d="M-22 0 A22 22 0 0 0 22 0 L22 -30 L-22 -30 Z"/><path transform="translate(640 0) rotate(0)" d="M-22 0 A22 22 0 0 0 22 0 L22 -30 L-22 -30 Z"/><path transform="translate(660 32) rotate(0)" d="M-22 0 A22 22 0 0 0 22 0 L22 -30 L-22 -30 Z"/><path transform="translate(640 1024) rotate(180)" d="M-22 0 A22 22 0 0 0 22 0 L22 -30 L-22 -30 Z"/><path transform="translate(660 992) rotate(180)" d="M-22 0 A22 22 0 0 0 22 0 L22 -30 L-22 -30 Z"/><path transform="translate(0 640) rotate(-90)" d="M-22 0 A22 22 0 0 0 22 0 L22 -30 L-22 -30 Z"/><path transform="translate(32 660) rotate(-90)" d="M-22 0 A22 22 0 0 0 22 0 L22 -30 L-22 -30 Z"/><path transform="translate(1024 640) rotate(90)" d="M-22 0 A22 22 0 0 0 22 0 L22 -30 L-22 -30 Z"/><path transform="translate(992 660) rotate(90)" d="M-22 0 A22 22 0 0 0 22 0 L22 -30 L-22 -30 Z"/><path transform="translate(680 0) rotate(0)" d="M-22 0 A22 22 0 0 0 22 0 L22 -30 L-22 -30 Z"/><path transform="translate(700 32) rotate(0)" d="M-22 0 A22 22 0 0 0 22 0 L22 -30 L-22 -30 Z"/><path transform="translate(680 1024) rotate(180)" d="M-22 0 A22 22 0 0 0 22 0 L22 -30 L-22 -30 Z"/><path transform="translate(700 992) rotate(180)" d="M-22 0 A22 22 0 0 0 22 0 L22 -30 L-22 -30 Z"/><path transform="translate(0 680) rotate(-90)" d="M-22 0 A22 22 0 0 0 22 0 L22 -30 L-22 -30 Z"/><path transform="translate(32 700) rotate(-90)" d="M-22 0 A22 22 0 0 0 22 0 L22 -30 L-22 -30 Z"/><path transform="translate(1024 680) rotate(90)" d="M-22 0 A22 22 0 0 0 22 0 L22 -30 L-22 -30 Z"/><path transform="translate(992 700) rotate(90)" d="M-22 0 A22 22 0 0 0 22 0 L22 -30 L-22 -30 Z"/><path transform="translate(720 0) rotate(0)" d="M-22 0 A22 22 0 0 0 22 0 L22 -30 L-22 -30 Z"/><path transform="translate(740 32) rotate(0)" d="M-22 0 A22 22 0 0 0 22 0 L22 -30 L-22 -30 Z"/><path transform="translate(720 1024) rotate(180)" d="M-22 0 A22 22 0 0 0 22 0 L22 -30 L-22 -30 Z"/><path transform="translate(740 992) rotate(180)" d="M-22 0 A22 22 0 0 0 22 0 L22 -30 L-22 -30 Z"/><path transform="translate(0 720) rotate(-90)" d="M-22 0 A22 22 0 0 0 22 0 L22 -30 L-22 -30 Z"/><path transform="translate(32 740) rotate(-90)" d="M-22 0 A22 22 0 0 0 22 0 L22 -30 L-22 -30 Z"/><path transform="translate(1024 720) rotate(90)" d="M-22 0 A22 22 0 0 0 22 0 L22 -30 L-22 -30 Z"/><path transform="translate(992 740) rotate(90)" d="M-22 0 A22 22 0 0 0 22 0 L22 -30 L-22 -30 Z"/><path transform="translate(760 0) rotate(0)" d="M-22 0 A22 22 0 0 0 22 0 L22 -30 L-22 -30 Z"/><path transform="translate(780 32) rotate(0)" d="M-22 0 A22 22 0 0 0 22 0 L22 -30 L-22 -30 Z"/><path transform="translate(760 1024) rotate(180)" d="M-22 0 A22 22 0 0 0 22 0 L22 -30 L-22 -30 Z"/><path transform="translate(780 992) rotate(180)" d="M-22 0 A22 22 0 0 0 22 0 L22 -30 L-22 -30 Z"/><path transform="translate(0 760) rotate(-90)" d="M-22 0 A22 22 0 0 0 22 0 L22 -30 L-22 -30 Z"/><path transform="translate(32 780) rotate(-90)" d="M-22 0 A22 22 0 0 0 22 0 L22 -30 L-22 -30 Z"/><path transform="translate(1024 760) rotate(90)" d="M-22 0 A22 22 0 0 0 22 0 L22 -30 L-22 -30 Z"/><path transform="translate(992 780) rotate(90)" d="M-22 0 A22 22 0 0 0 22 0 L22 -30 L-22 -30 Z"/><path transform="translate(800 0) rotate(0)" d="M-22 0 A22 22 0 0 0 22 0 L22 -30 L-22 -30 Z"/><path transform="translate(820 32) rotate(0)" d="M-22 0 A22 22 0 0 0 22 0 L22 -30 L-22 -30 Z"/><path transform="translate(800 1024) rotate(180)" d="M-22 0 A22 22 0 0 0 22 0 L22 -30 L-22 -30 Z"/><path transform="translate(820 992) rotate(180)" d="M-22 0 A22 22 0 0 0 22 0 L22 -30 L-22 -30 Z"/><path transform="translate(0 800) rotate(-90)" d="M-22 0 A22 22 0 0 0 22 0 L22 -30 L-22 -30 Z"/><path transform="translate(32 820) rotate(-90)" d="M-22 0 A22 22 0 0 0 22 0 L22 -30 L-22 -30 Z"/><path transform="translate(1024 800) rotate(90)" d="M-22 0 A22 22 0 0 0 22 0 L22 -30 L-22 -30 Z"/><path transform="translate(992 820) rotate(90)" d="M-22 0 A22 22 0 0 0 22 0 L22 -30 L-22 -30 Z"/><path transform="translate(840 0) rotate(0)" d="M-22 0 A22 22 0 0 0 22 0 L22 -30 L-22 -30 Z"/><path transform="translate(860 32) rotate(0)" d="M-22 0 A22 22 0 0 0 22 0 L22 -30 L-22 -30 Z"/><path transform="translate(840 1024) rotate(180)" d="M-22 0 A22 22 0 0 0 22 0 L22 -30 L-22 -30 Z"/><path transform="translate(860 992) rotate(180)" d="M-22 0 A22 22 0 0 0 22 0 L22 -30 L-22 -30 Z"/><path transform="translate(0 840) rotate(-90)" d="M-22 0 A22 22 0 0 0 22 0 L22 -30 L-22 -30 Z"/><path transform="translate(32 860) rotate(-90)" d="M-22 0 A22 22 0 0 0 22 0 L22 -30 L-22 -30 Z"/><path transform="translate(1024 840) rotate(90)" d="M-22 0 A22 22 0 0 0 22 0 L22 -30 L-22 -30 Z"/><path transform="translate(992 860) rotate(90)" d="M-22 0 A22 22 0 0 0 22 0 L22 -30 L-22 -30 Z"/><path transform="translate(880 0) rotate(0)" d="M-22 0 A22 22 0 0 0 22 0 L22 -30 L-22 -30 Z"/><path transform="translate(900 32) rotate(0)" d="M-22 0 A22 22 0 0 0 22 0 L22 -30 L-22 -30 Z"/><path transform="translate(880 1024) rotate(180)" d="M-22 0 A22 22 0 0 0 22 0 L22 -30 L-22 -30 Z"/><path transform="translate(900 992) rotate(180)" d="M-22 0 A22 22 0 0 0 22 0 L22 -30 L-22 -30 Z"/><path transform="translate(0 880) rotate(-90)" d="M-22 0 A22 22 0 0 0 22 0 L22 -30 L-22 -30 Z"/><path transform="translate(32 900) rotate(-90)" d="M-22 0 A22 22 0 0 0 22 0 L22 -30 L-22 -30 Z"/><path transform="translate(1024 880) rotate(90)" d="M-22 0 A22 22 0 0 0 22 0 L22 -30 L-22 -30 Z"/><path transform="translate(992 900) rotate(90)" d="M-22 0 A22 22 0 0 0 22 0 L22 -30 L-22 -30 Z"/><path transform="translate(920 0) rotate(0)" d="M-22 0 A22 22 0 0 0 22 0 L22 -30 L-22 -30 Z"/><path transform="translate(940 32) rotate(0)" d="M-22 0 A22 22 0 0 0 22 0 L22 -30 L-22 -30 Z"/><path transform="translate(920 1024) rotate(180)" d="M-22 0 A22 22 0 0 0 22 0 L22 -30 L-22 -30 Z"/><path transform="translate(940 992) rotate(180)" d="M-22 0 A22 22 0 0 0 22 0 L22 -30 L-22 -30 Z"/><path transform="translate(0 920) rotate(-90)" d="M-22 0 A22 22 0 0 0 22 0 L22 -30 L-22 -30 Z"/><path transform="translate(32 940) rotate(-90)" d="M-22 0 A22 22 0 0 0 22 0 L22 -30 L-22 -30 Z"/><path transform="translate(1024 920) rotate(90)" d="M-22 0 A22 22 0 0 0 22 0 L22 -30 L-22 -30 Z"/><path transform="translate(992 940) rotate(90)" d="M-22 0 A22 22 0 0 0 22 0 L22 -30 L-22 -30 Z"/><path transform="translate(960 0) rotate(0)" d="M-22 0 A22 22 0 0 0 22 0 L22 -30 L-22 -30 Z"/><path transform="translate(980 32) rotate(0)" d="M-22 0 A22 22 0 0 0 22 0 L22 -30 L-22 -30 Z"/><path transform="translate(960 1024) rotate(180)" d="M-22 0 A22 22 0 0 0 22 0 L22 -30 L-22 -30 Z"/><path transform="translate(980 992) rotate(180)" d="M-22 0 A22 22 0 0 0 22 0 L22 -30 L-22 -30 Z"/><path transform="translate(0 960) rotate(-90)" d="M-22 0 A22 22 0 0 0 22 0 L22 -30 L-22 -30 Z"/><path transform="translate(32 980) rotate(-90)" d="M-22 0 A22 22 0 0 0 22 0 L22 -30 L-22 -30 Z"/><path transform="translate(1024 960) rotate(90)" d="M-22 0 A22 22 0 0 0 22 0 L22 -30 L-22 -30 Z"/><path transform="translate(992 980) rotate(90)" d="M-22 0 A22 22 0 0 0 22 0 L22 -30 L-22 -30 Z"/><path transform="translate(1000 0) rotate(0)" d="M-22 0 A22 22 0 0 0 22 0 L22 -30 L-22 -30 Z"/><path transform="translate(1020 32) rotate(0)" d="M-22 0 A22 22 0 0 0 22 0 L22 -30 L-22 -30 Z"/><path transform="translate(1000 1024) rotate(180)" d="M-22 0 A22 22 0 0 0 22 0 L22 -30 L-22 -30 Z"/><path transform="translate(1020 992) rotate(180)" d="M-22 0 A22 22 0 0 0 22 0 L22 -30 L-22 -30 Z"/><path transform="translate(0 1000) rotate(-90)" d="M-22 0 A22 22 0 0 0 22 0 L22 -30 L-22 -30 Z"/><path transform="translate(32 1020) rotate(-90)" d="M-22 0 A22 22 0 0 0 22 0 L22 -30 L-22 -30 Z"/><path transform="translate(1024 1000) rotate(90)" d="M-22 0 A22 22 0 0 0 22 0 L22 -30 L-22 -30 Z"/><path transform="translate(992 1020) rotate(90)" d="M-22 0 A22 22 0 0 0 22 0 L22 -30 L-22 -30 Z"/><path transform="translate(1040 0) rotate(0)" d="M-22 0 A22 22 0 0 0 22 0 L22 -30 L-22 -30 Z"/><path transform="translate(1060 32) rotate(0)" d="M-22 0 A22 22 0 0 0 22 0 L22 -30 L-22 -30 Z"/><path transform="translate(1040 1024) rotate(180)" d="M-22 0 A22 22 0 0 0 22 0 L22 -30 L-22 -30 Z"/><path transform="translate(1060 992) rotate(180)" d="M-22 0 A22 22 0 0 0 22 0 L22 -30 L-22 -30 Z"/><path transform="translate(0 1040) rotate(-90)" d="M-22 0 A22 22 0 0 0 22 0 L22 -30 L-22 -30 Z"/><path transform="translate(32 1060) rotate(-90)" d="M-22 0 A22 22 0 0 0 22 0 L22 -30 L-22 -30 Z"/><path transform="translate(1024 1040) rotate(90)" d="M-22 0 A22 22 0 0 0 22 0 L22 -30 L-22 -30 Z"/><path transform="translate(992 1060) rotate(90)" d="M-22 0 A22 22 0 0 0 22 0 L22 -30 L-22 -30 Z"/></g>
<rect x="66" y="66" width="892" height="892" fill="none" stroke="#e0b45a" stroke-width="5"/>
</svg>
